{
  "accessors": [
    {
      "bufferView": 2,
      "componentType": 5126,
      "count": 2351,
      "max": [
        4.855319976806641,
        0.8005800247192383,
        2.315119981765747
      ],
      "min": [
        -4.769440174102783,
        -0.8005800247192383,
        -2.3743700981140137
      ],
      "type": "VEC3"
    },
    {
      "bufferView": 2,
      "byteOffset": 28212,
      "componentType": 5126,
      "count": 2351,
      "max": [
        0.9978610277175903,
        0.9997004866600037,
        0.9997933506965637
      ],
      "min": [
        -0.9999756217002869,
        -0.9997004866600037,
        -0.999999463558197
      ],
      "type": "VEC3"
    },
    {
      "bufferView": 1,
      "componentType": 5126,
      "count": 2351,
      "max": [
        0.8189100027084351,
        0.9998400211334229
      ],
      "min": [
        0.00015999999595806003,
        0.00015999999595806003
      ],
      "type": "VEC2"
    },
    {
      "bufferView": 0,
      "componentType": 5125,
      "count": 12312,
      "type": "SCALAR"
    }
  ],
  "asset": {
    "extras": {
      "author": "ryan_saputra (https://sketchfab.com/ryan_saputra)",
      "license": "CC-BY-4.0 (http://creativecommons.org/licenses/by/4.0/)",
      "source": "https://sketchfab.com/3d-models/barramundi-fish-699ae7b41ed14962a4d1afa008a8ba2a",
      "title": "Barramundi fish"
    },
    "generator": "Sketchfab-12.66.0",
    "version": "2.0"
  },
  "bufferViews": [
    {
      "buffer": 0,
      "byteLength": 49248,
      "name": "floatBufferViews",
      "target": 34963
    },
    {
      "buffer": 0,
      "byteLength": 18808,
      "byteOffset": 49248,
      "byteStride": 8,
      "name": "floatBufferViews",
      "target": 34962
    },
    {
      "buffer": 0,
      "byteLength": 56424,
      "byteOffset": 68056,
      "byteStride": 12,
      "name": "floatBufferViews",
      "target": 34962
    }
  ],
  "buffers": [
    {
      "byteLength": 124480,
      "uri": "scene.bin"
    }
  ],
  "images": [
    {
      "uri": "textures/Material_baseColor.png"
    }
  ],
  "materials": [
    {
      "doubleSided": true,
      "name": "Material",
      "pbrMetallicRoughness": {
        "baseColorTexture": {
          "index": 0
        },
        "metallicFactor": 0.0,
        "roughnessFactor": 0.8065929878048781
      }
    }
  ],
  "meshes": [
    {
      "name": "Cube_0",
      "primitives": [
        {
          "attributes": {
            "NORMAL": 1,
            "POSITION": 0,
            "TEXCOORD_0": 2
          },
          "indices": 3,
          "material": 0,
          "mode": 4
        }
      ]
    }
  ],
  "nodes": [
    {
      "children": [
        1
      ],
      "matrix": [
        1.0,
        0.0,
        0.0,
        0.0,
        0.0,
        2.220446049250313e-16,
        -1.0,
        0.0,
        0.0,
        1.0,
        2.220446049250313e-16,
        0.0,
        0.0,
        0.0,
        0.0,
        1.0
      ],
      "name": "Sketchfab_model"
    },
    {
      "children": [
        2
      ],
      "name": "Root"
    },
    {
      "children": [
        3
      ],
      "matrix": [
        0.16543000000000005,
        0.0,
        0.0,
        0.0,
        0.0,
        0.16543000000000005,
        0.0,
        0.0,
        0.0,
        0.0,
        0.16543000000000005,
        0.0,
        0.0,
        0.0,
        0.0,
        1.0
      ],
      "name": "Cube"
    },
    {
      "mesh": 0,
      "name": "Cube_0"
    }
  ],
  "samplers": [
    {
      "magFilter": 9729,
      "minFilter": 9987,
      "wrapS": 10497,
      "wrapT": 10497
    }
  ],
  "scene": 0,
  "scenes": [
    {
      "name": "Sketchfab_Scene",
      "nodes": [
        0
      ]
    }
  ],
  "textures": [
    {
      "sampler": 0,
      "source": 0
    }
  ]
}
